<svg xmlns="http://www.w3.org/2000/svg" xmlns:xlink="http://www.w3.org/1999/xlink" preserveAspectRatio="xMidYMid" width="21.38" height="13.66" viewBox="0 0 21.38 13.66">
  <defs>
    <style>
      .cls-1 {
        fill: #062033;
        fill-rule: evenodd;
      }
    </style>
  </defs>
  <path d="M14.043,1.316 L19.364,1.316 L19.364,2.675 L14.043,2.675 L14.043,1.316 ZM21.382,9.364 L14.455,9.364 C14.529,11.044 15.346,11.663 16.812,11.663 C17.872,11.663 18.727,11.325 18.894,10.727 L21.007,10.727 C20.265,13.005 18.894,13.660 16.720,13.660 C13.693,13.660 11.817,11.570 11.817,8.584 C11.817,5.690 13.805,3.488 16.720,3.488 C19.989,3.488 21.568,6.397 21.382,9.364 ZM14.455,7.391 L18.746,7.391 C18.504,6.048 17.927,5.486 16.645,5.486 C14.974,5.486 14.491,6.645 14.455,7.391 ZM11.125,9.534 C11.125,12.241 8.839,13.400 6.443,13.400 L0.017,13.400 L0.017,-0.012 L6.259,-0.012 C8.784,-0.012 10.493,0.893 10.493,3.375 C10.493,4.683 9.843,5.597 8.690,6.157 C10.308,6.624 11.125,7.874 11.125,9.534 ZM5.413,2.244 L2.683,2.244 L2.683,5.361 L5.636,5.361 C6.657,5.361 7.419,4.894 7.419,3.776 C7.419,2.506 6.453,2.244 5.413,2.244 ZM5.858,7.357 L2.683,7.357 L2.683,11.016 L5.803,11.016 C6.954,11.016 7.957,10.644 7.957,9.262 C7.957,7.900 7.103,7.357 5.858,7.357 Z" class="cls-1"/>
</svg>
