<svg xmlns="http://www.w3.org/2000/svg" xmlns:xlink="http://www.w3.org/1999/xlink" preserveAspectRatio="xMidYMid" width="28.656" height="28.69" viewBox="0 0 28.656 28.69">
  <defs>
    <style>
      .cls-1 {
        fill: #fff;
        fill-rule: evenodd;
      }
    </style>
  </defs>
  <path d="M14.322,28.680 C6.406,28.680 -0.012,22.262 -0.012,14.343 C-0.012,6.425 6.406,0.006 14.322,0.006 C22.239,0.006 28.656,6.425 28.656,14.343 C28.656,22.262 22.239,28.680 14.322,28.680 ZM14.322,1.798 C7.406,1.798 1.780,7.426 1.780,14.343 C1.780,21.260 7.406,26.916 14.322,26.916 C21.238,26.916 26.864,21.260 26.864,14.343 C26.864,7.426 21.238,1.798 14.322,1.798 ZM18.179,19.476 L13.745,15.041 C13.731,15.027 13.727,15.008 13.714,14.994 C13.539,14.830 13.426,14.601 13.426,14.343 L13.426,5.383 C13.426,4.888 13.827,4.487 14.322,4.487 C14.817,4.487 15.218,4.888 15.218,5.383 L15.218,13.979 L19.447,18.209 C19.796,18.559 19.796,19.126 19.447,19.476 C19.097,19.826 18.529,19.826 18.179,19.476 Z" class="cls-1"/>
</svg>
