<svg xmlns="http://www.w3.org/2000/svg" xmlns:xlink="http://www.w3.org/1999/xlink" preserveAspectRatio="xMidYMid" width="29.875" height="28.38" viewBox="0 0 29.875 28.38">
  <defs>
    <style>
      .cls-1 {
        fill: #fff;
        fill-rule: evenodd;
      }
    </style>
  </defs>
  <path d="M28.588,8.354 C27.516,9.680 25.861,10.357 23.687,10.392 C22.484,13.980 19.453,16.634 15.807,17.022 L15.807,23.609 L18.706,23.609 C19.224,23.609 19.644,24.033 19.644,24.555 C19.644,25.078 19.224,25.501 18.706,25.501 L11.125,25.501 C10.606,25.501 10.187,25.078 10.187,24.555 C10.187,24.033 10.606,23.609 11.125,23.609 L13.932,23.609 L13.932,17.021 C10.289,16.625 7.263,13.968 6.065,10.380 C3.967,10.316 2.357,9.649 1.310,8.354 C-0.516,6.096 0.113,2.782 0.140,2.645 C0.229,2.205 0.614,1.889 1.059,1.889 L5.507,1.889 L5.507,0.945 C5.507,0.422 5.927,-0.001 6.445,-0.001 L23.312,-0.001 C23.830,-0.001 24.249,0.422 24.249,0.945 L24.249,1.889 L28.839,1.889 C29.285,1.889 29.669,2.205 29.758,2.645 C29.785,2.782 30.415,6.096 28.588,8.354 ZM1.898,3.781 C1.856,4.641 1.939,6.145 2.770,7.165 C3.379,7.914 4.348,8.335 5.619,8.458 C5.552,7.972 5.507,7.479 5.507,6.974 L5.507,3.781 L1.898,3.781 ZM22.374,1.891 L7.383,1.891 L7.383,6.974 C7.383,11.499 10.746,15.181 14.880,15.181 C19.012,15.181 22.374,11.499 22.374,6.974 L22.374,1.891 ZM24.249,3.781 L24.249,6.974 C24.249,7.483 24.204,7.979 24.136,8.468 C25.478,8.365 26.497,7.942 27.129,7.165 C27.959,6.145 28.043,4.642 28.001,3.781 L24.249,3.781 ZM8.322,26.476 L21.508,26.476 C22.027,26.476 22.446,26.899 22.446,27.422 C22.446,27.944 22.027,28.367 21.508,28.367 L8.322,28.367 C7.804,28.367 7.385,27.944 7.385,27.422 C7.385,26.899 7.804,26.476 8.322,26.476 Z" class="cls-1"/>
</svg>
