<svg xmlns="http://www.w3.org/2000/svg" xmlns:xlink="http://www.w3.org/1999/xlink" preserveAspectRatio="xMidYMid" width="21.38" height="21.38" viewBox="0 0 21.38 21.38">
  <defs>
    <style>
      .cls-1 {
        fill: #062033;
        fill-rule: evenodd;
      }
    </style>
  </defs>
  <path d="M21.159,8.533 C21.019,7.847 20.809,7.171 20.537,6.526 C20.269,5.892 19.937,5.282 19.552,4.712 C19.170,4.147 18.731,3.615 18.248,3.132 C17.765,2.649 17.234,2.210 16.668,1.829 C16.098,1.442 15.487,1.112 14.854,0.844 C14.209,0.572 13.533,0.361 12.847,0.222 C12.143,0.077 11.420,0.004 10.697,0.004 C9.973,0.004 9.249,0.077 8.545,0.222 C7.859,0.361 7.184,0.572 6.539,0.844 C5.906,1.112 5.295,1.442 4.724,1.829 C4.158,2.210 3.627,2.649 3.144,3.132 C2.661,3.615 2.222,4.147 1.841,4.712 C1.455,5.282 1.123,5.892 0.856,6.526 C0.583,7.171 0.373,7.847 0.233,8.533 C0.089,9.235 0.016,9.959 0.016,10.682 C0.016,11.407 0.089,12.131 0.233,12.833 C0.373,13.519 0.583,14.195 0.856,14.840 C1.123,15.473 1.455,16.084 1.841,16.655 C2.222,17.220 2.661,17.750 3.144,18.234 C3.627,18.717 4.158,19.155 4.724,19.537 C5.295,19.922 5.906,20.254 6.539,20.522 C7.184,20.795 7.859,21.003 8.545,21.144 C9.249,21.289 9.973,21.362 10.697,21.362 C11.420,21.362 12.143,21.289 12.847,21.144 C13.533,21.003 14.209,20.795 14.854,20.522 C15.487,20.254 16.098,19.922 16.668,19.537 C17.234,19.155 17.765,18.717 18.248,18.234 C18.731,17.750 19.170,17.220 19.552,16.655 C19.937,16.084 20.269,15.473 20.537,14.840 C20.809,14.195 21.019,13.519 21.159,12.833 C21.304,12.131 21.377,11.407 21.377,10.682 C21.377,9.959 21.304,9.235 21.159,8.533 ZM19.815,10.592 C19.683,10.563 16.596,9.899 13.461,10.293 C13.397,10.137 13.332,9.980 13.265,9.822 C13.075,9.376 12.871,8.934 12.659,8.500 C16.261,7.030 17.723,4.915 17.740,4.890 C19.020,6.443 19.794,8.428 19.815,10.592 ZM16.721,3.838 C16.698,3.874 15.399,5.851 11.956,7.141 C10.397,4.277 8.684,2.001 8.547,1.821 C9.236,1.653 9.955,1.563 10.697,1.563 C13.006,1.563 15.113,2.423 16.721,3.838 ZM8.512,1.828 C8.511,1.829 8.510,1.829 8.510,1.829 C8.510,1.829 8.500,1.832 8.483,1.835 C8.492,1.833 8.502,1.831 8.512,1.828 ZM6.805,2.435 C6.926,2.597 8.613,4.884 10.192,7.689 C5.812,8.853 2.011,8.807 1.770,8.803 C2.363,5.978 4.261,3.636 6.805,2.435 ZM1.575,10.682 C1.575,10.585 1.579,10.490 1.583,10.394 C1.744,10.397 6.251,10.500 10.947,9.095 C11.208,9.606 11.458,10.126 11.687,10.645 C11.566,10.679 11.447,10.715 11.327,10.754 C6.405,12.344 3.909,16.773 3.909,16.773 C3.909,16.773 3.912,16.775 3.912,16.777 C2.460,15.161 1.575,13.025 1.575,10.682 ZM10.697,19.803 C8.489,19.803 6.464,19.018 4.886,17.713 C5.006,17.810 5.090,17.872 5.090,17.872 C5.090,17.872 6.839,14.059 12.248,12.175 C12.268,12.168 12.289,12.162 12.309,12.156 C13.592,15.490 14.122,18.283 14.257,19.081 C13.163,19.545 11.959,19.803 10.697,19.803 ZM15.793,18.247 C15.700,17.696 15.214,15.020 14.018,11.732 C16.962,11.262 19.514,12.069 19.702,12.131 C19.296,14.672 17.841,16.864 15.793,18.247 Z" class="cls-1"/>
</svg>
