<svg xmlns="http://www.w3.org/2000/svg" xmlns:xlink="http://www.w3.org/1999/xlink" preserveAspectRatio="xMidYMid" width="19.188" height="13.34" viewBox="0 0 19.188 13.34">
  <defs>
    <style>
      .cls-1 {
        fill: #4c76ff;
        fill-rule: evenodd;
      }
    </style>
  </defs>
  <path d="M19.191,11.211 C19.191,12.216 18.685,13.334 17.692,13.334 L2.099,13.334 C1.106,13.334 0.000,12.216 0.000,11.211 L0.000,1.503 C0.000,1.446 0.016,1.396 0.023,1.342 C0.013,1.278 0.037,1.224 0.048,1.159 C0.051,1.151 0.054,1.143 0.056,1.135 C0.077,1.040 0.079,0.939 0.147,0.860 C0.169,0.834 0.198,0.821 0.223,0.800 C0.595,0.262 1.374,-0.013 2.099,-0.013 L17.692,-0.013 C18.553,-0.013 19.024,0.394 19.141,1.152 C19.153,1.220 19.178,1.276 19.168,1.344 C19.172,1.401 19.191,1.443 19.191,1.503 L19.191,11.211 ZM2.099,12.121 L17.692,12.121 C18.022,12.121 17.991,11.546 17.991,11.211 L17.991,2.519 L9.988,8.996 C9.875,9.095 9.735,9.144 9.595,9.144 C9.455,9.144 9.315,9.095 9.203,8.996 L1.200,2.519 L1.200,11.211 C1.200,11.546 1.769,12.121 2.099,12.121 ZM17.392,1.200 L2.099,1.200 C1.933,1.200 1.708,1.192 1.524,1.227 L9.595,7.735 L17.700,1.200 C17.696,1.200 17.695,1.200 17.692,1.200 L17.392,1.200 Z" class="cls-1"/>
</svg>
