<svg xmlns="http://www.w3.org/2000/svg" xmlns:xlink="http://www.w3.org/1999/xlink" preserveAspectRatio="xMidYMid" width="18.34" height="21.34" viewBox="0 0 18.34 21.34">
  <defs>
    <style>
      .cls-1 {
        fill: #062033;
        fill-rule: evenodd;
      }
    </style>
  </defs>
  <path d="M18.270,21.126 C18.181,21.265 18.030,21.348 17.868,21.348 L10.484,21.348 L10.484,17.342 L13.762,15.340 C14.124,15.340 14.418,15.042 14.418,14.673 C14.418,14.304 14.124,14.006 13.762,14.006 L10.484,16.008 L10.484,13.672 L12.451,12.671 C12.813,12.671 13.107,12.372 13.107,12.003 C13.107,11.635 12.813,11.336 12.451,11.336 L10.484,12.337 L10.484,11.336 C10.484,10.968 10.191,10.669 9.829,10.669 L8.518,10.669 C8.155,10.669 7.862,10.968 7.862,11.336 L7.862,15.563 L5.240,14.673 C4.878,14.673 4.584,14.972 4.584,15.340 C4.584,15.709 4.878,16.008 5.240,16.008 L7.862,16.898 L7.862,21.348 L0.478,21.348 C0.316,21.348 0.165,21.264 0.076,21.126 C-0.013,20.988 -0.027,20.813 0.037,20.661 L8.747,0.284 C8.823,0.105 8.996,-0.010 9.188,-0.010 C9.379,-0.010 9.553,0.105 9.629,0.284 L18.309,20.662 C18.373,20.813 18.359,20.989 18.270,21.126 Z" class="cls-1"/>
</svg>
