<svg xmlns="http://www.w3.org/2000/svg" xmlns:xlink="http://www.w3.org/1999/xlink" preserveAspectRatio="xMidYMid" width="28.375" height="28.38" viewBox="0 0 28.375 28.38">
  <defs>
    <style>
      .cls-1 {
        fill: #fff;
        fill-rule: evenodd;
      }
    </style>
  </defs>
  <path d="M26.885,23.932 L23.943,23.932 C23.734,23.151 23.570,22.568 23.030,22.160 L26.609,22.160 L26.609,20.585 C26.491,20.504 26.330,20.411 26.199,20.356 C26.148,20.333 26.085,20.304 26.036,20.277 L20.371,17.188 C19.848,16.903 19.504,16.374 19.453,15.780 C19.404,15.187 19.656,14.608 20.124,14.239 C21.654,13.037 22.168,10.387 22.168,9.000 L22.168,5.259 C22.168,3.956 19.818,1.767 17.257,1.767 C15.975,1.767 14.793,2.200 13.859,2.926 C13.163,2.705 12.359,2.704 11.629,2.659 C12.909,1.163 15.107,-0.004 17.257,-0.004 C20.565,-0.004 23.942,2.782 23.942,5.259 L23.942,9.000 C23.942,10.796 23.295,14.002 21.220,15.632 L26.885,18.722 C26.885,18.722 28.382,19.338 28.382,20.218 L28.382,22.436 C28.382,23.262 27.711,23.932 26.885,23.932 ZM17.736,9.670 L17.736,13.411 C17.736,15.208 17.173,18.413 15.098,20.044 L20.680,23.133 C20.680,23.133 22.177,23.749 22.177,24.629 L22.177,26.874 C22.177,27.701 21.506,28.371 20.680,28.371 L1.508,28.371 C0.683,28.371 0.012,27.701 0.012,26.874 L0.012,24.629 C0.012,23.799 1.508,23.133 1.508,23.133 L7.235,20.030 C5.139,18.350 4.447,15.045 4.447,13.411 L4.447,9.670 C4.447,7.194 7.828,4.434 11.135,4.434 C14.443,4.434 17.736,7.194 17.736,9.670 ZM15.963,9.670 C15.963,8.367 13.696,6.206 11.135,6.206 C8.621,6.206 6.220,8.398 6.220,9.670 L6.220,13.411 C6.220,14.818 6.857,17.456 8.344,18.647 C8.807,19.018 9.054,19.597 9.001,20.188 C8.948,20.779 8.602,21.304 8.080,21.587 L2.353,24.690 C2.314,24.713 2.272,24.732 2.230,24.751 C2.090,24.815 1.913,24.923 1.785,25.015 L1.785,26.599 L20.404,26.599 L20.404,24.996 C20.286,24.915 20.125,24.822 19.994,24.767 C19.942,24.744 19.880,24.715 19.831,24.688 L14.249,21.599 C13.726,21.314 13.382,20.785 13.331,20.192 C13.282,19.598 13.534,19.019 14.002,18.651 C15.532,17.448 15.963,14.798 15.963,13.411 L15.963,9.670 Z" class="cls-1"/>
</svg>
