<svg xmlns="http://www.w3.org/2000/svg" xmlns:xlink="http://www.w3.org/1999/xlink" preserveAspectRatio="xMidYMid" width="21.38" height="18.34" viewBox="0 0 21.38 18.34">
  <defs>
    <style>
      .cls-1 {
        fill: #062033;
        fill-rule: evenodd;
      }
    </style>
  </defs>
  <path d="M18.039,4.608 L18.039,7.865 L16.704,7.865 L16.704,4.608 L13.366,4.608 L13.366,3.277 L16.704,3.277 L16.704,0.020 L18.039,0.020 L18.039,3.277 L21.376,3.277 L21.376,4.608 L18.039,4.608 ZM8.808,1.311 C9.992,1.966 10.686,3.030 10.686,4.422 C10.686,5.592 9.964,6.512 9.033,7.228 C8.124,7.925 7.951,8.217 7.951,8.810 C7.951,9.315 8.925,10.177 9.434,10.531 C10.922,11.565 11.362,12.524 11.362,14.125 C11.362,16.124 9.434,18.356 5.868,18.356 C2.739,18.356 0.016,16.859 0.016,14.861 C0.016,12.832 2.508,10.874 5.636,10.874 C5.977,10.874 6.289,10.861 6.612,10.861 C6.184,10.452 5.846,9.943 5.846,9.325 C5.846,8.958 5.965,8.590 6.131,8.276 C5.961,8.288 5.788,8.261 5.609,8.261 C3.040,8.261 1.318,6.404 1.318,4.180 C1.318,2.003 3.695,-0.000 6.221,-0.000 C7.629,-0.000 11.855,-0.000 11.855,-0.000 L10.594,1.311 L8.808,1.311 ZM6.232,11.392 C4.069,11.370 2.132,12.687 2.132,14.269 C2.132,15.884 3.694,17.064 5.856,17.064 C8.896,17.064 9.956,15.966 9.956,14.352 C9.956,14.158 9.931,13.967 9.887,13.781 C9.649,12.868 8.807,12.415 7.633,11.613 C7.206,11.478 6.736,11.398 6.232,11.392 ZM8.661,4.447 C8.410,2.576 6.968,1.074 5.517,1.032 C4.066,0.989 3.092,2.421 3.343,4.293 C3.594,6.164 4.973,7.716 6.425,7.759 C7.875,7.802 8.911,6.319 8.661,4.447 Z" class="cls-1"/>
</svg>
