<svg xmlns="http://www.w3.org/2000/svg" xmlns:xlink="http://www.w3.org/1999/xlink" preserveAspectRatio="xMidYMid" width="23.938" height="24" viewBox="0 0 23.938 24">
  <defs>
    <style>
      .cls-1 {
        fill: #fff;
        fill-rule: evenodd;
      }
    </style>
  </defs>
  <path d="M22.928,8.964 C22.401,10.383 21.864,11.344 20.391,12.653 C19.345,13.584 16.821,14.760 15.131,15.705 C14.510,16.052 13.851,16.408 13.479,16.639 L13.479,20.493 C13.479,20.711 13.384,20.918 13.218,21.059 L10.452,23.811 C10.315,23.929 10.142,23.991 9.966,23.991 C9.889,23.991 9.811,23.979 9.735,23.955 C9.487,23.874 9.300,23.670 9.240,23.417 L8.331,19.573 L6.644,17.702 C5.835,16.803 5.329,16.243 5.025,15.868 L0.571,14.849 C0.314,14.791 0.107,14.600 0.026,14.349 C-0.054,14.098 0.004,13.823 0.179,13.625 L2.915,10.659 C3.057,10.499 3.260,10.407 3.474,10.407 L7.627,10.407 C7.886,9.943 8.190,9.335 8.509,8.699 C9.334,7.052 10.269,5.068 11.209,3.971 C12.338,2.655 13.546,1.786 15.015,1.237 C19.034,-0.264 23.213,0.041 23.213,0.041 C23.585,0.068 23.880,0.367 23.903,0.740 C23.915,0.936 24.182,5.588 22.928,8.964 ZM22.435,1.508 C21.135,1.498 18.292,1.607 15.537,2.637 C14.299,3.099 13.313,3.810 12.343,4.943 C11.522,5.901 10.591,7.875 9.844,9.368 C9.402,10.249 9.021,11.010 8.693,11.545 C8.557,11.766 8.316,11.901 8.057,11.901 L3.810,11.901 L2.132,13.674 L5.552,14.457 C5.714,14.494 5.858,14.584 5.962,14.710 C6.121,14.892 8.195,17.193 9.568,18.715 C9.652,18.808 9.712,18.921 9.740,19.043 L10.411,21.880 L11.986,20.149 L11.986,16.246 C11.986,16.022 12.087,15.809 12.261,15.668 C12.563,15.421 13.252,15.045 14.402,14.402 C15.944,13.540 18.474,12.360 19.399,11.537 C20.652,10.424 21.068,9.682 21.528,8.444 C22.408,6.077 22.459,2.885 22.435,1.508 ZM16.465,10.448 C14.814,10.448 13.470,9.105 13.470,7.453 C13.470,5.802 14.814,4.458 16.465,4.458 C18.115,4.458 19.459,5.802 19.459,7.453 C19.459,9.105 18.115,10.448 16.465,10.448 ZM16.465,5.958 C15.640,5.958 14.970,6.629 14.970,7.453 C14.970,8.277 15.640,8.948 16.465,8.948 C17.289,8.948 17.959,8.277 17.959,7.453 C17.959,6.629 17.289,5.958 16.465,5.958 ZM2.384,17.782 C2.766,17.592 3.161,17.418 3.590,17.089 L4.500,18.250 C3.956,18.667 3.454,18.917 3.050,19.119 C2.089,19.598 1.609,19.868 1.534,22.387 C4.145,22.293 4.441,21.642 4.910,20.667 C5.093,20.288 5.300,19.857 5.633,19.404 L6.740,20.410 C6.466,20.865 6.375,21.093 6.213,21.430 C5.472,22.971 4.732,23.864 0.775,23.864 L0.041,23.881 L0.028,23.118 C0.028,19.367 0.783,18.581 2.384,17.782 Z" class="cls-1"/>
</svg>
