<svg xmlns="http://www.w3.org/2000/svg" xmlns:xlink="http://www.w3.org/1999/xlink" preserveAspectRatio="xMidYMid" width="21.38" height="17.32" viewBox="0 0 21.38 17.32">
  <defs>
    <style>
      .cls-1 {
        fill: #062033;
        fill-rule: evenodd;
      }
    </style>
  </defs>
  <path d="M14.545,-0.008 C16.242,-0.038 17.146,0.580 18.009,1.367 C18.741,1.304 19.693,0.895 20.254,0.610 C20.435,0.510 20.617,0.411 20.799,0.312 C20.479,1.177 20.044,1.854 19.377,2.368 C19.229,2.483 19.082,2.637 18.896,2.709 C18.896,2.713 18.896,2.717 18.896,2.720 C19.847,2.711 20.631,2.281 21.376,2.049 C21.376,2.052 21.376,2.056 21.376,2.060 C20.985,2.681 20.455,3.312 19.890,3.765 C19.662,3.946 19.434,4.127 19.206,4.308 C19.218,5.315 19.191,6.275 19.003,7.122 C17.909,12.039 15.009,15.378 10.418,16.808 C8.770,17.322 6.106,17.533 4.218,17.064 C3.281,16.831 2.435,16.569 1.641,16.222 C1.200,16.029 0.792,15.821 0.401,15.583 C0.273,15.505 0.145,15.427 0.016,15.348 C0.442,15.361 0.940,15.478 1.417,15.402 C1.848,15.332 2.270,15.351 2.668,15.263 C3.659,15.046 4.539,14.758 5.297,14.314 C5.665,14.100 6.223,13.847 6.484,13.537 C5.992,13.545 5.546,13.431 5.180,13.302 C3.762,12.802 2.937,11.882 2.400,10.500 C2.830,10.546 4.067,10.658 4.357,10.414 C3.816,10.385 3.296,10.071 2.924,9.839 C1.784,9.125 0.854,7.929 0.861,6.088 C1.010,6.159 1.160,6.230 1.310,6.301 C1.596,6.421 1.888,6.486 2.229,6.556 C2.374,6.586 2.662,6.672 2.828,6.610 C2.821,6.610 2.814,6.610 2.806,6.610 C2.586,6.353 2.226,6.182 2.005,5.907 C1.273,4.998 0.587,3.598 1.021,1.931 C1.131,1.509 1.306,1.136 1.492,0.791 C1.499,0.795 1.506,0.798 1.513,0.802 C1.598,0.980 1.788,1.111 1.909,1.260 C2.282,1.723 2.743,2.139 3.213,2.507 C4.813,3.758 6.254,4.527 8.569,5.097 C9.156,5.241 9.835,5.351 10.536,5.352 C10.339,4.779 10.402,3.851 10.557,3.296 C10.947,1.900 11.794,0.893 13.038,0.354 C13.335,0.226 13.664,0.131 14.010,0.056 C14.188,0.035 14.367,0.013 14.545,-0.008 Z" class="cls-1"/>
</svg>
